M48
METRIC
T1C0.600
T2C0.762
T3C0.800
T4C1.000
T5C4.300
%
G90
G05
T1
X51.21Y-110.76
X51.99Y-93.51
X53.639Y-90.659
X53.639Y-96.111
X55.16Y-42.96
X55.16Y-55.66
X55.89Y-100.11
X56.43Y-91.861
X60.99Y-102.65
X62.652Y-43.34
X63.852Y-92.062
X63.91Y-110.66
X64.808Y-53.245
X65.501Y-96.409
X65.99Y-51.269
X65.99Y-55.21
X66.139Y-45.12
X67.224Y-98.411
X67.49Y-49.619
X68.239Y-45.12
X69.29Y-55.768
X69.519Y-89.754
X71.165Y-48.41
X71.214Y-103.06
X71.43Y-114.08
X71.524Y-84.96
X71.705Y-87.142
X73.34Y-133.11
X74.99Y-129.244
X76.75Y-149.64
X76.75Y-152.18
X76.75Y-154.72
X76.75Y-162.34
X76.75Y-164.88
X76.75Y-168.69
X76.888Y-146.809
X78.027Y-96.723
X78.655Y-176.945
X79.289Y-137.614
X79.803Y-104.332
X79.99Y-98.372
X80.243Y-119.477
X80.56Y-114.08
X80.56Y-116.62
X85.99Y-124.24
X86.99Y-144.56
X87.545Y-131.401
X88.18Y-159.8
X89.45Y-134.4
X89.45Y-136.94
X89.807Y-129.32
X94.191Y-123.76
X94.198Y-121.37
X94.909Y-103.26
X94.909Y-108.17
X95.42Y-152.18
X95.8Y-115.35
X96.706Y-133.13
X97.07Y-112.81
X97.07Y-144.56
X97.99Y-124.24
X99.61Y-173.77
X102.15Y-111.54
X102.15Y-134.4
X103.976Y-146.517
X104.182Y-133.79
X104.3Y-175.42
X104.742Y-131.734
X105.96Y-145.83
X105.96Y-159.8
X105.96Y-162.34
X105.96Y-164.88
X105.96Y-167.42
X107.23Y-136.94
X107.63Y-149.765
X108.481Y-95.54
X110.13Y-93.51
X112.49Y-41.69
X112.55Y-108.76
X113.637Y-46.907
X113.741Y-91.861
X114.99Y-115.76
X115.84Y-91.861
X116.12Y-106.488
X116.63Y-51.975
X117.49Y-87.26
X117.99Y-99.73
X119.009Y-46.36
X119.265Y-106.485
X119.93Y-51.85
X119.93Y-117.51
X119.99Y-101.38
X121.277Y-98.081
X125.01Y-83.6
X127.22Y-98.51
X127.55Y-43.01
X129.54Y-47.16
X131.36Y-50.58
X131.36Y-55.66
T2
X57.24Y-113.76
X60.99Y-49.26
X60.99Y-92.26
X122.99Y-51.76
X122.99Y-94.76
X124.24Y-113.76
T3
X50.99Y-115.76
X52.24Y-113.76
X53.49Y-115.76
X54.74Y-113.76
X55.99Y-115.76
X58.49Y-115.76
X58.99Y-43.01
X58.99Y-45.51
X58.99Y-48.01
X58.99Y-50.51
X58.99Y-53.01
X58.99Y-55.51
X58.99Y-58.01
X58.99Y-86.01
X58.99Y-88.51
X58.99Y-91.01
X58.99Y-93.51
X58.99Y-96.01
X58.99Y-98.51
X58.99Y-101.01
X59.74Y-113.76
X60.99Y-44.26
X60.99Y-46.76
X60.99Y-51.76
X60.99Y-54.26
X60.99Y-56.76
X60.99Y-87.26
X60.99Y-89.76
X60.99Y-94.76
X60.99Y-97.26
X60.99Y-99.76
X60.99Y-115.76
X62.24Y-113.76
X63.49Y-115.76
X64.74Y-113.76
X65.99Y-115.76
X117.99Y-115.76
X119.24Y-113.76
X120.49Y-115.76
X121.74Y-113.76
X122.99Y-44.26
X122.99Y-46.76
X122.99Y-49.26
X122.99Y-54.26
X122.99Y-56.76
X122.99Y-87.26
X122.99Y-89.76
X122.99Y-92.26
X122.99Y-97.26
X122.99Y-99.76
X122.99Y-115.76
X124.99Y-43.01
X124.99Y-45.51
X124.99Y-48.01
X124.99Y-50.51
X124.99Y-53.01
X124.99Y-55.51
X124.99Y-58.01
X124.99Y-86.01
X124.99Y-88.51
X124.99Y-91.01
X124.99Y-93.51
X124.99Y-96.01
X124.99Y-98.51
X124.99Y-101.01
X125.49Y-115.76
X126.74Y-113.76
X127.99Y-115.76
X129.24Y-113.76
X130.49Y-115.76
X131.74Y-113.76
X132.99Y-115.76
T4
X46.13Y-108.76
X48.67Y-108.76
X51.21Y-108.76
X53.75Y-108.76
X56.29Y-108.76
X58.83Y-108.76
X61.37Y-108.76
X63.91Y-108.76
X66.45Y-108.76
X68.99Y-108.76
X84.37Y-111.54
X84.37Y-114.08
X84.37Y-116.62
X84.37Y-119.16
X84.37Y-121.7
X84.37Y-124.24
X84.37Y-126.78
X84.37Y-129.32
X84.37Y-131.86
X84.37Y-134.4
X84.37Y-136.94
X84.37Y-139.48
X84.37Y-142.02
X84.37Y-144.56
X84.37Y-147.1
X84.37Y-149.64
X84.37Y-152.18
X84.37Y-154.72
X84.37Y-157.26
X84.37Y-159.8
X84.37Y-162.34
X84.37Y-164.88
X84.37Y-167.42
X84.37Y-169.96
X99.61Y-111.54
X99.61Y-114.08
X99.61Y-116.62
X99.61Y-119.16
X99.61Y-121.7
X99.61Y-124.24
X99.61Y-126.78
X99.61Y-129.32
X99.61Y-131.86
X99.61Y-134.4
X99.61Y-136.94
X99.61Y-139.48
X99.61Y-142.02
X99.61Y-144.56
X99.61Y-147.1
X99.61Y-149.64
X99.61Y-152.18
X99.61Y-154.72
X99.61Y-157.26
X99.61Y-159.8
X99.61Y-162.34
X99.61Y-164.88
X99.61Y-167.42
X99.61Y-169.96
X114.99Y-108.76
X117.53Y-108.76
X120.07Y-108.76
X122.61Y-108.76
X125.15Y-108.76
X127.69Y-108.76
X130.23Y-108.76
X132.77Y-108.76
X135.31Y-108.76
X137.85Y-108.76
T5
X91.99Y-93.76
T0
M30
