%TF.GenerationSoftware,KiCad,Pcbnew,(6.99.0-5113-g34e134c5e5)*%
%TF.CreationDate,2023-01-03T19:22:37+01:00*%
%TF.ProjectId,kinesis_board,6b696e65-7369-4735-9f62-6f6172642e6b,2.0*%
%TF.SameCoordinates,Original*%
%TF.FileFunction,Profile,NP*%
%FSLAX46Y46*%
G04 Gerber Fmt 4.6, Leading zero omitted, Abs format (unit mm)*
G04 Created by KiCad (PCBNEW (6.99.0-5113-g34e134c5e5)) date 2023-01-03 19:22:37*
%MOMM*%
%LPD*%
G01*
G04 APERTURE LIST*
%TA.AperFunction,Profile*%
%ADD10C,0.200000*%
%TD*%
G04 APERTURE END LIST*
D10*
X78990000Y-182760000D02*
X104990000Y-182760000D01*
X68989998Y-126260000D02*
G75*
G03*
X63990000Y-121260000I-4999998J2D01*
G01*
X49490000Y-87010000D02*
X53990000Y-87010000D01*
X68990002Y-172760000D02*
G75*
G03*
X78990000Y-182760000I9999998J-2D01*
G01*
X141989998Y-47760000D02*
G75*
G03*
X131990000Y-37760000I-9999998J2D01*
G01*
X141990000Y-47760000D02*
X141990000Y-121260000D01*
X49490000Y-84510000D02*
X49490000Y-87010000D01*
X41990000Y-121260000D02*
X63990000Y-121260000D01*
X104990000Y-182759998D02*
G75*
G03*
X114990000Y-172760000I2J9999998D01*
G01*
X129990000Y-87010000D02*
X129990000Y-84510000D01*
X49490000Y-84510000D02*
X53990000Y-84510000D01*
X129990000Y-87010000D02*
X134490000Y-87010000D01*
X119990000Y-121260002D02*
G75*
G03*
X114990000Y-126260000I-2J-4999998D01*
G01*
X51990000Y-37760002D02*
G75*
G03*
X41990000Y-47760000I-2J-9999998D01*
G01*
X119990000Y-121260000D02*
X141990000Y-121260000D01*
X51990000Y-37760000D02*
X131990000Y-37760000D01*
X114990000Y-126260000D02*
X114990000Y-172760000D01*
X53990000Y-84510000D02*
X53990000Y-87010000D01*
X41990000Y-47760000D02*
X41990000Y-121260000D01*
X129990000Y-84510000D02*
X134490000Y-84510000D01*
X134490000Y-84510000D02*
X134490000Y-87010000D01*
X68990000Y-126260000D02*
X68990000Y-172760000D01*
M02*
