M48
METRIC
T1C0.800
T2C0.800
T3C1.000
T4C4.300
%
G90
G05
T1
X84.033Y-70.309
X85.303Y-127.639
X85.353Y-55.249
X85.682Y-120.148
X87.463Y-114.56
X87.463Y-116.66
X88.703Y-63.79
X89.25Y-69.163
X89.502Y-53.259
X90.752Y-111.634
X91.962Y-115.309
X92.923Y-51.439
X93.612Y-116.809
X94.193Y-62.869
X94.318Y-66.169
X95.588Y-117.991
X97.553Y-116.809
X98.003Y-51.439
X98.003Y-127.639
X98.111Y-113.51
X125.943Y-57.789
X127.303Y-111.275
X129.485Y-111.095
X129.603Y-65.309
X132.097Y-113.28
X133.353Y-129.16
X134.203Y-66.959
X134.203Y-69.058
X134.203Y-126.369
X134.405Y-118.948
X135.853Y-72.669
X135.853Y-130.809
X137.883Y-74.318
X138.453Y-129.16
X138.752Y-117.298
X139.066Y-104.772
X140.423Y-61.522
X140.715Y-102.809
X140.754Y-115.575
X140.853Y-55.579
X142.073Y-64.809
X142.453Y-126.909
X143.723Y-62.809
X144.993Y-121.809
X145.403Y-111.585
X145.603Y-87.89
X146.675Y-102.996
X148.828Y-63.534
X148.831Y-66.679
X150.513Y-87.89
X151.103Y-70.249
X153.003Y-118.889
X153.103Y-131.589
X153.883Y-80.649
X155.153Y-85.729
X156.423Y-102.239
X156.423Y-111.369
X157.693Y-86.999
X158.103Y-67.809
X158.963Y-102.239
X159.853Y-62.869
X161.82Y-102.556
X163.713Y-88.601
X166.103Y-88.609
X166.583Y-84.809
X166.583Y-96.809
X171.663Y-92.992
X173.486Y-106.36
X173.744Y-95.254
X174.077Y-78.057
X175.353Y-108.01
X175.473Y-86.093
X176.133Y-78.617
X176.743Y-80.649
X176.743Y-93.349
X179.283Y-75.569
X179.283Y-93.349
X179.853Y-102.929
X185.103Y-105.559
X186.903Y-85.729
X188.173Y-76.839
X188.86Y-78.823
X189.152Y-105.911
X191.983Y-106.049
X192.108Y-75.169
X194.523Y-87.379
X194.523Y-106.049
X197.063Y-106.049
X202.143Y-76.839
X202.143Y-94.619
X204.683Y-76.839
X204.683Y-106.049
X207.223Y-76.839
X207.223Y-106.049
X209.763Y-76.839
X211.033Y-106.049
X216.113Y-83.189
X217.763Y-78.499
X219.288Y-104.144
T2
X85.353Y-57.809
X85.353Y-123.809
X86.603Y-59.809
X86.603Y-121.809
X87.853Y-57.809
X87.853Y-123.809
X89.103Y-59.809
X89.103Y-121.809
X90.353Y-57.809
X90.353Y-123.809
X91.603Y-59.809
X91.603Y-121.809
X92.853Y-57.809
X92.853Y-123.809
X94.103Y-59.809
X94.103Y-121.809
X95.353Y-57.809
X95.353Y-123.809
X96.603Y-59.809
X96.603Y-121.809
X97.853Y-57.809
X97.853Y-123.809
X99.103Y-59.809
X99.103Y-121.809
X100.353Y-57.809
X100.353Y-123.809
X128.353Y-57.809
X128.353Y-123.809
X129.603Y-59.809
X129.603Y-121.809
X130.853Y-57.809
X130.853Y-123.809
X132.103Y-59.809
X132.103Y-121.809
X133.353Y-57.809
X133.353Y-123.809
X134.603Y-59.809
X134.603Y-121.809
X135.853Y-57.809
X135.853Y-123.809
X137.103Y-59.809
X137.103Y-121.809
X138.353Y-57.809
X138.353Y-123.809
X139.603Y-59.809
X139.603Y-121.809
X140.853Y-57.809
X140.853Y-123.809
X142.103Y-59.809
X142.103Y-121.809
X143.353Y-57.809
X143.353Y-123.809
X156.103Y-51.059
X156.103Y-53.559
X156.103Y-56.059
X156.103Y-58.559
X156.103Y-61.059
X156.103Y-63.559
X156.103Y-118.059
X156.103Y-120.559
X156.103Y-123.059
X156.103Y-125.559
X156.103Y-128.059
X156.103Y-130.559
X158.103Y-49.809
X158.103Y-52.309
X158.103Y-54.809
X158.103Y-57.309
X158.103Y-59.809
X158.103Y-62.309
X158.103Y-64.809
X158.103Y-116.809
X158.103Y-119.309
X158.103Y-121.809
X158.103Y-124.309
X158.103Y-126.809
X158.103Y-129.309
X158.103Y-131.809
T3
X151.103Y-44.949
X151.103Y-47.489
X151.103Y-50.029
X151.103Y-52.569
X151.103Y-55.109
X151.103Y-57.649
X151.103Y-60.189
X151.103Y-62.729
X151.103Y-65.269
X151.103Y-67.809
X151.103Y-113.809
X151.103Y-116.349
X151.103Y-118.889
X151.103Y-121.429
X151.103Y-123.969
X151.103Y-126.509
X151.103Y-129.049
X151.103Y-131.589
X151.103Y-134.129
X151.103Y-136.669
X153.883Y-83.189
X153.883Y-98.429
X156.423Y-83.189
X156.423Y-98.429
X158.963Y-83.189
X158.963Y-98.429
X161.503Y-83.189
X161.503Y-98.429
X164.043Y-83.189
X164.043Y-98.429
X166.583Y-83.189
X166.583Y-98.429
X169.123Y-83.189
X169.123Y-98.429
X171.663Y-83.189
X171.663Y-98.429
X174.203Y-83.189
X174.203Y-98.429
X176.743Y-83.189
X176.743Y-98.429
X179.283Y-83.189
X179.283Y-98.429
X181.823Y-83.189
X181.823Y-98.429
X184.363Y-83.189
X184.363Y-98.429
X186.903Y-83.189
X186.903Y-98.429
X189.443Y-83.189
X189.443Y-98.429
X191.983Y-83.189
X191.983Y-98.429
X194.523Y-83.189
X194.523Y-98.429
X197.063Y-83.189
X197.063Y-98.429
X199.603Y-83.189
X199.603Y-98.429
X202.143Y-83.189
X202.143Y-98.429
X204.683Y-83.189
X204.683Y-98.429
X207.223Y-83.189
X207.223Y-98.429
X209.763Y-83.189
X209.763Y-98.429
X212.303Y-83.189
X212.303Y-98.429
T4
X136.103Y-90.809
T0
M30
