%TF.GenerationSoftware,KiCad,Pcbnew,(6.99.0-5113-g34e134c5e5)*%
%TF.CreationDate,2023-01-06T12:30:30+01:00*%
%TF.ProjectId,kinesis_board,6b696e65-7369-4735-9f62-6f6172642e6b,2.0*%
%TF.SameCoordinates,Original*%
%TF.FileFunction,Profile,NP*%
%FSLAX46Y46*%
G04 Gerber Fmt 4.6, Leading zero omitted, Abs format (unit mm)*
G04 Created by KiCad (PCBNEW (6.99.0-5113-g34e134c5e5)) date 2023-01-06 12:30:30*
%MOMM*%
%LPD*%
G01*
G04 APERTURE LIST*
%TA.AperFunction,Profile*%
%ADD10C,0.200000*%
%TD*%
G04 APERTURE END LIST*
D10*
X128102944Y-128809144D02*
G75*
G03*
X126852944Y-130059143I-44J-1249956D01*
G01*
X128102944Y-133309144D02*
G75*
G03*
X129352944Y-132059143I-44J1250044D01*
G01*
X225102944Y-101809143D02*
X225102944Y-79809143D01*
X126852944Y-130059143D02*
X126852944Y-132059143D01*
X163602944Y-64809143D02*
X163602944Y-40809143D01*
X168602944Y-111809144D02*
G75*
G03*
X163602944Y-116809143I6J-5000006D01*
G01*
X215102944Y-111809144D02*
G75*
G03*
X225102944Y-101809143I6J9999994D01*
G01*
X90102944Y-40809144D02*
G75*
G03*
X80102944Y-50809143I6J-10000006D01*
G01*
X90102944Y-40809143D02*
X163602944Y-40809143D01*
X128102944Y-48309144D02*
G75*
G03*
X126852944Y-49559143I-44J-1249956D01*
G01*
X225102957Y-79809143D02*
G75*
G03*
X215102944Y-69809143I-9999957J43D01*
G01*
X222852944Y-90809143D02*
G75*
G03*
X222852944Y-90809143I-1500000J0D01*
G01*
X129352957Y-130059143D02*
G75*
G03*
X128102944Y-128809143I-1250157J-157D01*
G01*
X163602944Y-140809143D02*
X163602944Y-116809143D01*
X126852857Y-51559143D02*
G75*
G03*
X128102944Y-52809143I1250043J43D01*
G01*
X163602957Y-64809143D02*
G75*
G03*
X168603031Y-69809143I5000143J143D01*
G01*
X126852944Y-49559143D02*
X126852944Y-51559143D01*
X129352944Y-130059143D02*
X129352944Y-132059143D01*
X80102947Y-130809143D02*
G75*
G03*
X90102944Y-140809143I10000103J103D01*
G01*
X128102944Y-52809144D02*
G75*
G03*
X129352944Y-51559143I-44J1250044D01*
G01*
X80102944Y-130809143D02*
X80102944Y-50809143D01*
X168602944Y-69809143D02*
X215102944Y-69809143D01*
X90102944Y-140809143D02*
X163602944Y-140809143D01*
X126852957Y-132059143D02*
G75*
G03*
X128102944Y-133309143I1249843J-157D01*
G01*
X129352944Y-49559143D02*
X129352944Y-51559143D01*
X168602944Y-111809143D02*
X215102944Y-111809143D01*
X129352857Y-49559143D02*
G75*
G03*
X128102944Y-48309143I-1249957J43D01*
G01*
M02*
